<?xml version="1.0" encoding="UTF-8" standalone="no"?>
<!-- Created with Inkscape (http://www.inkscape.org/) -->

<svg
   width="210mm"
   height="297mm"
   viewBox="0 0 210 297"
   version="1.1"
   id="svg1"
   xml:space="preserve"
   inkscape:export-filename="bitmap.svg"
   inkscape:export-xdpi="96"
   inkscape:export-ydpi="96"
   inkscape:version="1.4.2 (f4327f4, 2025-05-13)"
   sodipodi:docname="WIPlogo.svg"
   xmlns:inkscape="http://www.inkscape.org/namespaces/inkscape"
   xmlns:sodipodi="http://sodipodi.sourceforge.net/DTD/sodipodi-0.dtd"
   xmlns="http://www.w3.org/2000/svg"
   xmlns:svg="http://www.w3.org/2000/svg"><sodipodi:namedview
     id="namedview1"
     pagecolor="#ffffff"
     bordercolor="#000000"
     borderopacity="0.25"
     inkscape:showpageshadow="2"
     inkscape:pageopacity="0.0"
     inkscape:pagecheckerboard="0"
     inkscape:deskcolor="#d1d1d1"
     inkscape:document-units="mm"
     inkscape:zoom="0.65121352"
     inkscape:cx="396.95122"
     inkscape:cy="561.25984"
     inkscape:window-width="1920"
     inkscape:window-height="991"
     inkscape:window-x="-9"
     inkscape:window-y="-9"
     inkscape:window-maximized="1"
     inkscape:current-layer="layer1"><inkscape:page
       x="0"
       y="0"
       width="210"
       height="297"
       id="page2"
       margin="0"
       bleed="0" /></sodipodi:namedview><defs
     id="defs1" /><g
     inkscape:label="Layer 1"
     inkscape:groupmode="layer"
     id="layer1"><path
       class="st0"
       d="m 3.919693,202.9885 h 26.17775 V 111.35162 L 4.4432483,114.7893 3.9197256,85.758085 30.097475,82.138613 v -26.04783 c 0,-2.407927 2.251285,-4.3615 5.02613,-4.3615 h 47.975089 c 2.774858,0 5.026128,1.953573 5.026128,4.3615 v 18.036633 l 94.431898,-13.03911 5.34022,29.04639 -10.9772,1.469001 v 7.844632 l 19.79041,18.809001 c 0.33178,0.30278 0.57583,0.65119 0.78531,0.99948 h 6.12562 c 0.57583,0 1.04711,0.40867 1.04711,0.90865 v 20.59595 c 0,0.49969 -0.47096,0.90865 -1.04711,0.90865 h -67.31173 c -0.57582,0 -1.0471,-0.40868 -1.0471,-0.90865 v -20.58079 c 0,-0.49968 0.47094,-0.90864 1.0471,-0.90864 h 6.33503 c 0.22691,-0.33313 0.52372,-0.6512 0.87259,-0.93899 L 167.3038,99.190875 V 92.906079 L 88.159716,103.53726 v 99.45124 h 26.753704 v 34.43771 H 3.919693 Z M 40.167149,80.745394 57.479361,78.352579 40.167149,66.52507 Z m 30.261482,-4.164661 7.64387,-1.060098 V 60.467454 H 46.851199 Z m 7.64387,28.319467 -8.725872,1.1661 8.725872,5.96679 z m -21.744961,2.92284 -16.177843,2.16558 v 5.73961 h 27.748391 z m 99.98151,11.44894 h 28.56866 L 171.77138,106.8235 Z M 51.598099,184.39158 78.072501,202.4736 V 184.39158 Z M 63.255912,202.9885 40.167149,187.22352 v 15.78015 h 23.088763 z m -11.657813,-48.73369 26.474402,18.08208 v -18.08208 z m -11.43095,21.77723 H 67.915568 L 40.167149,157.08675 Z m 11.413497,-51.94427 26.491855,18.09719 V 124.08777 Z M 40.167149,145.88016 H 67.915568 L 40.167149,126.93488 Z m 92.948441,10.58567 c 0,-1.04492 0.99473,-1.893 2.18148,-1.893 h 69.44084 c 1.20416,0 2.18148,0.86325 2.18148,1.893 0,44.91739 -0.0198,36.43674 0.0528,81.35412 h -73.99563 z m 41.60519,46.9013 h 14.20579 c 0.43666,0 0.78532,0.31824 0.78532,0.68148 v 14.93206 c 0,0.37892 -0.36673,0.68152 -0.78532,0.68152 h -14.20579 c -0.43666,0 -0.78538,-0.31824 -0.78538,-0.68152 v -14.93206 c 0,-0.37834 0.36673,-0.68148 0.78538,-0.68148 z m -24.06613,0 h 14.20581 c 0.43599,0 0.78532,0.31824 0.78532,0.68148 v 14.93206 c 0,0.37892 -0.36673,0.68152 -0.78532,0.68152 h -14.20581 c -0.43665,0 -0.78531,-0.31824 -0.78531,-0.68152 v -14.93206 c 0,-0.37834 0.36674,-0.68148 0.78531,-0.68148 z m 24.06613,-27.5471 h 14.20579 c 0.43666,0 0.78532,0.31824 0.78532,0.68147 v 14.93206 c 0,0.37892 -0.36673,0.68148 -0.78532,0.68148 h -14.20579 c -0.43666,0 -0.78538,-0.31824 -0.78538,-0.68148 V 176.5015 c 0,-0.36346 0.36673,-0.68147 0.78538,-0.68147 z m -24.06613,0 h 14.20581 c 0.43599,0 0.78532,0.31824 0.78532,0.68147 v 14.93206 c 0,0.37892 -0.36673,0.68148 -0.78532,0.68148 h -14.20581 c -0.43665,0 -0.78531,-0.31824 -0.78531,-0.68148 V 176.5015 c 0,-0.36346 0.36674,-0.68147 0.78531,-0.68147 z M 144.87811,163.417 h 50.03443 c 0.85511,0 1.57064,0.74208 1.57064,1.63556 v 60.54608 c 0,0.89354 -0.71553,1.63557 -1.57064,1.63557 h -50.03443 c -0.8551,0 -1.57063,-0.74203 -1.57063,-1.63557 v -60.54608 c 0,-0.89348 0.71553,-1.63556 1.57063,-1.63556 z"
       id="path1"
       style="stroke-width:1.6257" /><path
       style="fill:#ffffff;stroke-width:1.53559"
       d="M 15.355947,832.2923 V 768.56512 H 65.262773 115.1696 V 594.27513 c 0,-95.8595 -0.28834,-174.28999 -0.64075,-174.28999 -0.35242,0 -20.910189,2.76024 -45.683943,6.13388 -24.773755,3.37364 -46.490676,6.13772 -48.259826,6.14238 -3.186566,0.008 -3.224938,-0.49025 -4.10476,-53.34358 -0.488468,-29.34364 -0.705088,-53.53511 -0.481378,-53.75882 0.22371,-0.22371 20.382819,-3.14436 44.798018,-6.49033 24.4152,-3.34597 46.637079,-6.48101 49.381959,-6.96675 l 4.99068,-0.88317 V 259.0198 c 0,-57.43962 -0.10391,-56.81316 10.13273,-61.0903 7.57686,-3.16581 188.67652,-3.16581 196.25339,0 9.88035,4.12828 10.13273,5.26912 10.13273,45.80393 0,33.7302 0.20478,36.51659 2.68729,36.56501 1.47801,0.0288 81.60956,-10.82359 178.07012,-24.1165 96.46056,-13.29291 175.79034,-23.76142 176.2884,-23.26337 0.88726,0.88728 20.68728,106.12541 20.09043,106.78172 -0.167,0.18363 -9.42455,1.55369 -20.57232,3.04459 l -20.2687,2.71073 v 15.55856 15.55857 l 38.62852,36.67825 38.6285,36.67824 10.12663,0.39055 c 5.56963,0.21482 11.69266,0.74906 13.60672,1.18723 l 3.4801,0.79668 -0.40891,41.04163 -0.40892,41.04162 -128.05413,0.39276 c -94.23935,0.28906 -128.6121,-0.0703 -130.16715,-1.36088 -1.71317,-1.42182 -2.03554,-9.19632 -1.70362,-41.08603 l 0.40941,-39.33237 13.42162,-0.44346 c 11.34812,-0.37496 13.98988,-0.96804 17.10003,-3.83899 2.02313,-1.86754 23.08264,-18.94342 46.7989,-37.9464 l 43.12048,-34.55088 0.0516,-12.66866 c 0.0408,-10.02915 -0.40936,-12.66865 -2.16067,-12.66865 -2.32663,0 -285.15271,37.7576 -293.7797,39.21993 l -4.99673,0.84697 0.38995,188.42352 0.38996,188.42353 50.29073,0.40487 50.29072,0.40489 v 63.70619 63.7062 H 224.19682 15.355947 Z M 239.53864,767.41343 c -0.0147,-1.19651 -82.93997,-58.2559 -86.83821,-59.75179 -1.88061,-0.72166 -2.21215,3.77869 -2.21215,30.0273 v 30.87618 h 44.53224 c 24.49274,0 44.52589,-0.51826 44.51812,-1.15169 z m 56.83113,-36.47037 v -34.55088 h -51.00369 c -44.29782,0 -50.70804,0.2893 -48.75513,2.20038 3.36891,3.29674 96.9934,66.90138 98.47721,66.90138 0.70488,0 1.28161,-15.5479 1.28161,-34.55088 z m -40.64698,-66.72348 c -1.09217,-1.76719 -99.38974,-68.79797 -102.81858,-70.11375 -2.15547,-0.82713 -2.41593,2.98114 -2.41593,35.32368 v 36.25077 h 53.06864 c 33.1741,0 52.7302,-0.54759 52.16587,-1.4607 z m 40.64698,-46.91053 v -34.55088 h -50.98174 c -32.93381,0 -50.45449,0.52726 -49.49234,1.48941 2.55214,2.55214 98.10559,67.58697 99.32238,67.6 0.63344,0.007 1.1517,-15.53555 1.1517,-34.53853 z m -39.96371,-66.41447 c -0.0472,-1.42273 -100.67208,-70.06144 -103.71991,-70.74994 -1.85865,-0.41988 -2.19787,5.09048 -2.19787,35.70257 v 36.19907 h 52.97801 c 29.13791,0 52.9608,-0.51827 52.93977,-1.1517 z m 39.96371,-47.98733 v -35.31868 h -50.80259 c -34.165,0 -50.62996,0.51787 -50.27549,1.58131 0.54629,1.63886 97.88744,68.82824 99.92638,68.97382 0.63344,0.0452 1.1517,-15.81118 1.1517,-35.23645 z M 698.69557,450.843 c 0,-1.84851 -47.51945,-46.98161 -49.4657,-46.98161 -1.88221,0 -59.35658,45.63087 -59.47539,47.21954 -0.0474,0.63343 24.44499,1.1517 54.42748,1.1517 31.50108,0 54.51361,-0.58662 54.51361,-1.38963 z m -442.5072,-13.88553 c -0.28152,-0.80016 -9.8406,-7.83977 -21.24239,-15.6436 -13.95709,-9.55278 -21.98486,-14.10605 -24.56951,-13.93558 -5.4212,0.35753 -52.26342,6.4364 -56.43311,7.3235 -3.20964,0.68286 -3.45508,1.55113 -3.45508,12.22278 v 11.4877 h 53.10597 c 32.77455,0 52.91002,-0.55697 52.59412,-1.4548 z m 40.1814,-27.07572 V 395.1716 l -4.22289,0.8004 c -2.32258,0.44022 -10.32781,1.61133 -17.78939,2.60248 -7.92334,1.05247 -12.99819,2.37037 -12.20025,3.16832 2.19211,2.1921 31.79403,22.5032 33.06083,22.68438 0.63344,0.0906 1.1517,-6.45482 1.1517,-14.54543 z M 188.07426,300.92553 c 16.02711,-2.18444 29.37715,-4.20867 29.66677,-4.49828 0.84304,-0.84304 -63.89518,-45.35752 -65.96427,-45.35752 -0.70866,0 -1.28848,12.49322 -1.28848,27.76271 v 27.76272 l 4.22288,-0.84896 c 2.32259,-0.46693 17.33597,-2.63623 33.3631,-4.82067 z m 96.71582,-13.1882 11.57969,-1.72227 v -28.98962 -28.98963 h -60.19531 c -37.93014,0 -59.65572,0.53844 -58.7365,1.4557 0.80235,0.80065 20.75313,14.621 44.33506,30.7119 30.38586,20.73348 44.12324,29.25618 47.15681,29.25618 2.35431,0 9.49143,-0.77502 15.86025,-1.72226 z"
       id="path2"
       transform="scale(0.26458333)" /><path
       style="fill:#ffffff;stroke-width:1.53559"
       d="M 503.67505,743.31488 V 589.0747 l 3.41287,-2.39047 c 3.02489,-2.11871 18.47412,-2.39046 135.90012,-2.39046 130.43981,0 132.53473,0.0475 135.55845,3.07119 3.03023,3.03024 3.07119,5.11864 3.07119,156.63065 V 897.55508 H 642.64636 503.67505 Z M 741.3851,857.3225 c 1.40121,-1.40122 1.84271,-30.08565 1.84271,-119.72237 0,-114.97252 -0.0733,-117.91883 -2.97024,-119.46925 -1.95656,-1.04713 -35.721,-1.58963 -98.93616,-1.58963 -85.1943,0 -96.23679,0.27086 -98.37901,2.41308 -2.1515,2.1515 -2.41308,15.10201 -2.41308,119.46927 0,88.99623 0.44172,117.49791 1.84271,118.8989 2.66321,2.66319 196.34987,2.66319 199.01307,0 z"
       id="path3"
       transform="scale(0.26458333)" /><path
       style="fill:#ffffff;stroke-width:1.53559"
       d="m 658.77011,695.62438 v -29.9441 h 28.4085 28.4085 v 29.9441 29.94409 h -28.4085 -28.4085 z"
       id="path4"
       transform="scale(0.26458333)" /><path
       style="fill:#ffffff;stroke-width:1.53559"
       d="m 659.82809,828.99943 c -0.58189,-0.58189 -1.05798,-14.07214 -1.05798,-29.97835 v -28.92036 h 28.44166 28.44166 l -0.41706,29.5602 -0.41706,29.56019 -26.96662,0.41815 c -14.83164,0.22999 -27.44271,-0.0579 -28.0246,-0.63983 z"
       id="path5"
       transform="scale(0.26458333)" /><path
       style="fill:#ffffff;stroke-width:1.53559"
       d="m 567.69168,828.9987 c -0.58149,-0.58149 -1.05725,-14.07141 -1.05725,-29.97762 v -28.92036 h 29.20945 29.20946 l -0.41706,29.5602 -0.41705,29.56019 -27.73515,0.41742 c -15.25433,0.22958 -28.21091,-0.0583 -28.7924,-0.63983 z"
       id="path6"
       transform="scale(0.26458333)" /><path
       style="fill:#ffffff;stroke-width:1.53559"
       d="m 567.31724,723.59736 c -0.41601,-1.08412 -0.56708,-14.38621 -0.3357,-29.5602 l 0.42068,-27.58908 28.7924,-0.41778 28.7924,-0.41778 v 29.97798 29.97797 h -28.45669 c -21.74627,0 -28.63506,-0.46481 -29.21309,-1.97111 z"
       id="path7"
       transform="scale(0.26458333)" /></g><style
     type="text/css"
     id="style1">.st0{fill-rule:evenodd;clip-rule:evenodd;}</style><style
     type="text/css"
     id="style1-2">.st0{fill-rule:evenodd;clip-rule:evenodd;}</style></svg>
