<?xml version="1.0" encoding="UTF-8" standalone="no"?>
<svg
   width="16"
   height="16"
   fill="currentColor"
   class="bi bi-envelope-at"
   viewBox="0 0 16 16"
   version="1.1"
   id="svg2"
   sodipodi:docname="envelope-at.svg"
   inkscape:export-filename="envelope-at.svg"
   inkscape:export-xdpi="96"
   inkscape:export-ydpi="96"
   inkscape:version="1.4.2 (f4327f4, 2025-05-13)"
   xmlns:inkscape="http://www.inkscape.org/namespaces/inkscape"
   xmlns:sodipodi="http://sodipodi.sourceforge.net/DTD/sodipodi-0.dtd"
   xmlns="http://www.w3.org/2000/svg"
   xmlns:svg="http://www.w3.org/2000/svg">
  <defs
     id="defs2" />
  <sodipodi:namedview
     id="namedview2"
     pagecolor="#ffffff"
     bordercolor="#000000"
     borderopacity="0.25"
     inkscape:showpageshadow="2"
     inkscape:pageopacity="0.0"
     inkscape:pagecheckerboard="0"
     inkscape:deskcolor="#d1d1d1"
     inkscape:zoom="45.6875"
     inkscape:cx="8"
     inkscape:cy="8"
     inkscape:window-width="1920"
     inkscape:window-height="991"
     inkscape:window-x="-9"
     inkscape:window-y="-9"
     inkscape:window-maximized="1"
     inkscape:current-layer="svg2" />
  <path
     d="M2 2a2 2 0 0 0-2 2v8.01A2 2 0 0 0 2 14h5.5a.5.5 0 0 0 0-1H2a1 1 0 0 1-.966-.741l5.64-3.471L8 9.583l7-4.2V8.5a.5.5 0 0 0 1 0V4a2 2 0 0 0-2-2zm3.708 6.208L1 11.105V5.383zM1 4.217V4a1 1 0 0 1 1-1h12a1 1 0 0 1 1 1v.217l-7 4.2z"
     id="path1" />
  <path
     d="M14.247 14.269c1.01 0 1.587-.857 1.587-2.025v-.21C15.834 10.43 14.64 9 12.52 9h-.035C10.42 9 9 10.36 9 12.432v.214C9 14.82 10.438 16 12.358 16h.044c.594 0 1.018-.074 1.237-.175v-.73c-.245.11-.673.18-1.18.18h-.044c-1.334 0-2.571-.788-2.571-2.655v-.157c0-1.657 1.058-2.724 2.64-2.724h.04c1.535 0 2.484 1.05 2.484 2.326v.118c0 .975-.324 1.39-.639 1.39-.232 0-.41-.148-.41-.42v-2.19h-.906v.569h-.03c-.084-.298-.368-.63-.954-.63-.778 0-1.259.555-1.259 1.4v.528c0 .892.49 1.434 1.26 1.434.471 0 .896-.227 1.014-.643h.043c.118.42.617.648 1.12.648m-2.453-1.588v-.227c0-.546.227-.791.573-.791.297 0 .572.192.572.708v.367c0 .573-.253.744-.564.744-.354 0-.581-.215-.581-.8Z"
     id="path2" />
  <path
     style="fill:#ffffff;stroke:#ffffff;stroke-width:0.0218878"
     d="M 1.7608407,13.973552 C 1.458276,13.9382 1.0572432,13.777889 0.82257333,13.598483 0.3479615,13.235639 0.07420429,12.740993 0.02207109,12.152072 c -0.02928746,-0.330844 -0.02928746,-7.9732997 0,-8.3041444 C 0.09934689,2.9749845 0.69261962,2.2806756 1.5474397,2.062784 L 1.7400821,2.0136799 H 8 14.259918 l 0.192642,0.049104 c 0.696841,0.1776231 1.23714,0.6852077 1.4475,1.3598556 0.09478,0.3039797 0.102822,0.5526256 0.09563,2.9576614 l -0.0066,2.2216142 -0.05121,0.1039936 c -0.180079,0.3656703 -0.687121,0.3712924 -0.867351,0.00962 L 15.015048,8.604264 V 6.9865208 c 0,-1.2853391 -0.0056,-1.6155333 -0.02736,-1.6069877 -0.01505,0.00592 -1.593477,0.9505961 -3.507621,2.0992906 L 7.9998056,9.5673589 7.354212,9.1776755 C 6.9543166,8.9362966 6.6919584,8.7908472 6.6648427,8.795494 c -0.055424,0.0095 -5.5960392,3.41825 -5.6239201,3.460003 -0.01446,0.02165 0.00357,0.07989 0.060248,0.194564 0.1355293,0.274225 0.3937048,0.475696 0.6892367,0.537855 0.081813,0.01721 0.9492152,0.02443 2.9439125,0.02452 1.979421,8.5e-5 2.8541933,0.0073 2.9154753,0.02407 0.176807,0.04837 0.3392613,0.279623 0.3392613,0.482939 0,0.103012 -0.098404,0.292071 -0.1873224,0.359892 -0.1606535,0.122536 -0.043544,0.118165 -3.0829141,0.115086 -1.5419992,-0.0016 -2.8730897,-0.01095 -2.9579789,-0.02087 z M 3.359026,9.6689466 C 4.6452345,8.8774282 5.6976773,8.2199726 5.697788,8.2079343 5.6979734,8.1877686 1.0383631,5.3764111 1.001368,5.3743678 0.992339,5.373869 0.9849521,6.6637483 0.9849521,8.2407661 c 0,1.5770178 0.00799,2.8673049 0.0177566,2.8673049 0.00977,0 1.0701089,-0.647606 2.3563173,-1.4391244 z m 8.172821,-3.3542691 3.483201,-2.090247 V 4.079635 c 0,-0.2101921 -0.03357,-0.3598852 -0.120413,-0.5369737 C 14.764113,3.2765082 14.502157,3.0736191 14.209593,3.012084 14.044535,2.9773673 1.9554651,2.9773673 1.790407,3.012084 1.4978429,3.0736191 1.2358875,3.2765082 1.1053648,3.5426613 1.0185232,3.7197428 0.98495212,3.8694429 0.98495212,4.0796049 V 4.2243701 L 4.4705882,6.3187892 C 6.5470991,7.5665051 7.974906,8.4115338 8.0024357,8.4090664 8.027852,8.4067885 9.6160873,7.4643137 11.531847,6.3146775 Z"
     id="path3" />
  <path
     style="fill:#ffffff;stroke:#ffffff;stroke-width:0.0218878"
     d="M 11.896033,15.966471 C 11.107406,15.877556 10.389072,15.552105 9.909775,15.066569 9.4960217,14.64743 9.2297598,14.130927 9.0888828,13.474179 c -0.056725,-0.264444 -0.059165,-0.302453 -0.059165,-0.921511 0,-0.622215 0.0022,-0.65594 0.060394,-0.927577 0.2221342,-1.036809 0.8134426,-1.813337 1.7107032,-2.2465589 1.0216,-0.4932561 2.398304,-0.4915277 3.391951,0.00426 0.312074,0.1557111 0.517985,0.3040742 0.768766,0.5539091 0.554996,0.5529048 0.824626,1.1975818 0.856087,2.0468838 0.03186,0.86004 -0.144392,1.446231 -0.56001,1.862531 -0.12873,0.128941 -0.207682,0.186498 -0.351999,0.25661 -0.411828,0.200074 -0.898913,0.204818 -1.304993,0.01271 -0.166394,-0.07872 -0.363598,-0.26682 -0.42196,-0.402486 -0.02595,-0.06032 -0.05922,-0.1095 -0.07393,-0.109294 -0.01471,2.05e-4 -0.05005,0.05419 -0.07853,0.119978 -0.228184,0.527139 -1.095188,0.699289 -1.653951,0.328403 -0.165956,-0.110155 -0.282629,-0.248732 -0.386046,-0.458522 -0.137775,-0.279487 -0.159935,-0.42168 -0.160502,-1.029905 -4.09e-4,-0.437496 0.0061,-0.550919 0.0392,-0.678522 0.132855,-0.512845 0.455988,-0.842131 0.923607,-0.941196 0.363896,-0.07709 0.748124,0.0046 0.980334,0.208518 0.08791,0.07718 0.201025,0.246666 0.222403,0.333225 0.0082,0.03311 0.02857,0.06019 0.04533,0.06019 0.02446,0 0.03046,-0.05606 0.03046,-0.284542 v -0.284542 h 0.437757 0.437756 l 1.23e-4,1.110807 c 8e-5,0.73493 0.0082,1.140433 0.02404,1.198359 0.05454,0.199664 0.221203,0.311129 0.434551,0.290629 0.291024,-0.02796 0.49984,-0.349104 0.583329,-0.897108 0.05329,-0.34981 0.03236,-0.943385 -0.04343,-1.231585 -0.160534,-0.610425 -0.57112,-1.128358 -1.122177,-1.415569 -0.374386,-0.1951297 -0.707665,-0.2773259 -1.200646,-0.2961131 -1.24289,-0.047366 -2.175993,0.5245591 -2.593511,1.5896351 -0.2024869,0.516538 -0.2519755,1.431624 -0.1113312,2.058606 0.2265662,1.010015 0.8906852,1.643821 1.9415262,1.852907 0.236211,0.047 0.924181,0.05367 1.21569,0.01178 0.176736,-0.02539 0.437967,-0.087 0.527661,-0.124438 0.03643,-0.01521 0.03848,0.0061 0.03283,0.341137 l -0.006,0.357356 -0.131327,0.03997 c -0.246288,0.07495 -0.516773,0.106909 -0.974008,0.115081 -0.246785,0.0044 -0.527497,-8.64e-4 -0.623803,-0.01172 z m 0.656605,-2.496791 c 0.213687,-0.05381 0.342241,-0.244064 0.38636,-0.571805 0.02714,-0.20158 0.01283,-0.705528 -0.02349,-0.827495 -0.04079,-0.136979 -0.145723,-0.276547 -0.257179,-0.34206 -0.09378,-0.05512 -0.126588,-0.06209 -0.291712,-0.06192 -0.131199,1.33e-4 -0.205539,0.01083 -0.252165,0.03627 -0.253146,0.138147 -0.357492,0.45098 -0.330975,0.992267 0.0236,0.481841 0.128085,0.684249 0.396635,0.768399 0.111496,0.03494 0.249622,0.03729 0.372522,0.0063 z"
     id="path4" />
</svg>
