<?xml version="1.0" encoding="UTF-8" standalone="no"?>
<svg
   width="16"
   height="16"
   fill="currentColor"
   class="bi bi-instagram"
   viewBox="0 0 16 16"
   version="1.1"
   id="svg1"
   sodipodi:docname="instagram.svg"
   inkscape:version="1.4.2 (f4327f4, 2025-05-13)"
   inkscape:export-filename="instagram.svg"
   inkscape:export-xdpi="96"
   inkscape:export-ydpi="96"
   xmlns:inkscape="http://www.inkscape.org/namespaces/inkscape"
   xmlns:sodipodi="http://sodipodi.sourceforge.net/DTD/sodipodi-0.dtd"
   xmlns="http://www.w3.org/2000/svg"
   xmlns:svg="http://www.w3.org/2000/svg">
  <defs
     id="defs1" />
  <sodipodi:namedview
     id="namedview1"
     pagecolor="#ffffff"
     bordercolor="#000000"
     borderopacity="0.25"
     inkscape:showpageshadow="2"
     inkscape:pageopacity="0.0"
     inkscape:pagecheckerboard="0"
     inkscape:deskcolor="#d1d1d1"
     inkscape:zoom="45.6875"
     inkscape:cx="8"
     inkscape:cy="8"
     inkscape:window-width="1920"
     inkscape:window-height="991"
     inkscape:window-x="-9"
     inkscape:window-y="-9"
     inkscape:window-maximized="1"
     inkscape:current-layer="svg1" />
  <path
     d="M8 0C5.829 0 5.556.01 4.703.048 3.85.088 3.269.222 2.76.42a3.9 3.9 0 0 0-1.417.923A3.9 3.9 0 0 0 .42 2.76C.222 3.268.087 3.85.048 4.7.01 5.555 0 5.827 0 8.001c0 2.172.01 2.444.048 3.297.04.852.174 1.433.372 1.942.205.526.478.972.923 1.417.444.445.89.719 1.416.923.51.198 1.09.333 1.942.372C5.555 15.99 5.827 16 8 16s2.444-.01 3.298-.048c.851-.04 1.434-.174 1.943-.372a3.9 3.9 0 0 0 1.416-.923c.445-.445.718-.891.923-1.417.197-.509.332-1.09.372-1.942C15.99 10.445 16 10.173 16 8s-.01-2.445-.048-3.299c-.04-.851-.175-1.433-.372-1.941a3.9 3.9 0 0 0-.923-1.417A3.9 3.9 0 0 0 13.24.42c-.51-.198-1.092-.333-1.943-.372C10.443.01 10.172 0 7.998 0zm-.717 1.442h.718c2.136 0 2.389.007 3.232.046.78.035 1.204.166 1.486.275.373.145.64.319.92.599s.453.546.598.92c.11.281.24.705.275 1.485.039.843.047 1.096.047 3.231s-.008 2.389-.047 3.232c-.035.78-.166 1.203-.275 1.485a2.5 2.5 0 0 1-.599.919c-.28.28-.546.453-.92.598-.28.11-.704.24-1.485.276-.843.038-1.096.047-3.232.047s-2.39-.009-3.233-.047c-.78-.036-1.203-.166-1.485-.276a2.5 2.5 0 0 1-.92-.598 2.5 2.5 0 0 1-.6-.92c-.109-.281-.24-.705-.275-1.485-.038-.843-.046-1.096-.046-3.233s.008-2.388.046-3.231c.036-.78.166-1.204.276-1.486.145-.373.319-.64.599-.92s.546-.453.92-.598c.282-.11.705-.24 1.485-.276.738-.034 1.024-.044 2.515-.045zm4.988 1.328a.96.96 0 1 0 0 1.92.96.96 0 0 0 0-1.92m-4.27 1.122a4.109 4.109 0 1 0 0 8.217 4.109 4.109 0 0 0 0-8.217m0 1.441a2.667 2.667 0 1 1 0 5.334 2.667 2.667 0 0 1 0-5.334"
     id="path1" />
  <path
     style="fill:#ffffff;stroke:#ffffff;stroke-width:0.0218878"
     d="M 5.2859097,15.966078 C 3.8314458,15.915127 3.1803839,15.786996 2.3967168,15.397479 2.0214025,15.210931 1.7520033,15.020582 1.4381931,14.720215 0.8839061,14.189674 0.55649385,13.659155 0.32096974,12.909935 0.05601562,12.067096 0.02102667,11.495661 0.02083558,8.0081828 0.02070408,5.6084237 0.03798952,4.7791063 0.10038351,4.1916454 0.19986233,3.2550181 0.47225447,2.4840077 0.92783829,1.8495212 1.0829364,1.6335178 1.4536117,1.2423799 1.6744186,1.061727 2.1862954,0.6429357 2.8651935,0.33855818 3.622435,0.18835237 4.3173538,0.05050887 4.7384915,0.03179916 7.4589382,0.01790969 10.262701,0.00359483 11.376791,0.0313545 12.082079,0.13310408 c 0.863903,0.1246323 1.667221,0.45713914 2.243502,0.92862292 0.220807,0.1806529 0.591483,0.5717908 0.746581,0.7877942 0.262499,0.3655796 0.43709,0.7162605 0.58609,1.1772122 0.150927,0.4669119 0.231733,0.9262089 0.278089,1.5806537 0.05835,0.8238048 0.05835,5.9614209 0,6.7852259 -0.05943,0.838941 -0.185004,1.415662 -0.433707,1.991792 -0.223058,0.516723 -0.48566,0.894256 -0.907055,1.304038 -0.357445,0.347596 -0.632864,0.541867 -1.05199,0.74204 -0.663135,0.31671 -1.266692,0.450259 -2.337023,0.517113 -0.473966,0.0296 -5.1834934,0.0443 -5.9206563,0.01848 z m 5.8549933,-1.441139 c 0.696006,-0.04316 1.092394,-0.109047 1.486651,-0.247095 0.956688,-0.334981 1.589119,-1.099027 1.793979,-2.167322 0.120764,-0.629751 0.141726,-1.234533 0.142096,-4.0995781 C 14.564056,4.6980752 14.533351,4.141602 14.312618,3.4617473 14.006335,2.5184028 13.31401,1.877287 12.334445,1.6298948 11.665176,1.4608687 11.279736,1.4445964 7.9452804,1.4445964 c -2.834799,0 -3.2419664,0.00956 -3.8158787,0.08956 C 3.343404,1.6437252 2.7622542,1.9214137 2.302525,2.407086 1.8525818,2.8824199 1.6108255,3.4677076 1.5112101,4.3228454 1.45359,4.817479 1.4369162,5.6427425 1.4369162,8 c 0,2.357257 0.016674,3.182521 0.074294,3.677155 0.1024625,0.879578 0.3520987,1.46524 0.8307872,1.949076 0.4672588,0.472285 1.0445432,0.73475 1.8495212,0.840893 0.2222566,0.02931 0.9046382,0.06941 1.4555403,0.08554 0.5783659,0.01694 5.1453441,-0.0061 5.4938441,-0.02773 z"
     id="path2" />
  <path
     style="fill:#ffffff;stroke:#ffffff;stroke-width:0.0218878"
     d="M 7.4418605,12.070518 C 6.8178318,11.984364 6.2048092,11.75926 5.7127223,11.435573 5.4296444,11.249369 5.2385704,11.089288 4.9788134,10.820709 3.9319027,9.7382413 3.5747051,8.1594673 4.0509291,6.7195622 4.4792314,5.4245525 5.5347671,4.4193732 6.8508892,4.0531795 7.5102755,3.8697139 8.2411471,3.8604324 8.9249143,4.026841 c 1.3442437,0.3271488 2.4541047,1.3543437 2.8951247,2.6794859 0.325173,0.9770528 0.275428,2.0092255 -0.14271,2.9611246 -0.234175,0.5331055 -0.638527,1.0731485 -1.080842,1.4435465 -0.591759,0.495543 -1.2085384,0.785135 -1.9836279,0.931358 -0.2069343,0.03904 -0.9608838,0.05717 -1.1709986,0.02816 z M 8.4621533,10.636433 C 9.1758459,10.511976 9.8302164,10.08584 10.225107,9.4883721 10.377219,9.2582271 10.439026,9.1356167 10.52301,8.8974008 10.635254,8.579031 10.667938,8.3766514 10.667938,8 c 0,-0.3766514 -0.03268,-0.579031 -0.144928,-0.8974008 C 10.2513,6.331914 9.6318632,5.7242437 8.851437,5.4627769 8.3171513,5.2837748 7.6844216,5.2832478 7.1527853,5.4613623 6.7461437,5.5975998 6.4144727,5.8047932 6.1057856,6.1154182 5.6542744,6.5697642 5.4035647,7.1043329 5.3374115,7.753762 c -0.042476,0.4169919 0.032568,0.9063969 0.1989328,1.297348 0.3476985,0.8170795 1.1108612,1.426318 1.9842484,1.584039 0.2357682,0.04258 0.7011342,0.04321 0.9415606,0.0013 z"
     id="path3" />
  <path
     style="fill:#ffffff;stroke:#ffffff;stroke-width:0.0218878"
     d="M 11.986996,4.6312354 C 11.729389,4.5461011 11.526344,4.3653583 11.414935,4.1220097 11.30386,3.8793908 11.295236,3.6536404 11.387487,3.4035568 c 0.08926,-0.2419737 0.250205,-0.4145307 0.497602,-0.5334996 0.132797,-0.06386 0.158303,-0.068416 0.383037,-0.068416 0.225488,0 0.250153,0.00445 0.388695,0.070073 0.60999,0.2889463 0.747834,1.0496889 0.275943,1.5228878 -0.183201,0.183708 -0.358403,0.2605394 -0.617765,0.2709078 -0.155228,0.00621 -0.228767,-0.00148 -0.328003,-0.034274 z"
     id="path4" />
</svg>
