<?xml version="1.0" encoding="UTF-8" standalone="no"?>
<svg
   width="16"
   height="16"
   fill="currentColor"
   class="bi bi-youtube"
   viewBox="0 0 16 16"
   version="1.1"
   id="svg1"
   sodipodi:docname="youtube.svg"
   inkscape:version="1.4.2 (f4327f4, 2025-05-13)"
   inkscape:export-filename="youtube.svg"
   inkscape:export-xdpi="96"
   inkscape:export-ydpi="96"
   xmlns:inkscape="http://www.inkscape.org/namespaces/inkscape"
   xmlns:sodipodi="http://sodipodi.sourceforge.net/DTD/sodipodi-0.dtd"
   xmlns="http://www.w3.org/2000/svg"
   xmlns:svg="http://www.w3.org/2000/svg">
  <defs
     id="defs1" />
  <sodipodi:namedview
     id="namedview1"
     pagecolor="#ffffff"
     bordercolor="#000000"
     borderopacity="0.25"
     inkscape:showpageshadow="2"
     inkscape:pageopacity="0.0"
     inkscape:pagecheckerboard="0"
     inkscape:deskcolor="#d1d1d1"
     inkscape:zoom="45.6875"
     inkscape:cx="8"
     inkscape:cy="8"
     inkscape:window-width="1920"
     inkscape:window-height="991"
     inkscape:window-x="-9"
     inkscape:window-y="-9"
     inkscape:window-maximized="1"
     inkscape:current-layer="svg1" />
  <path
     d="M8.051 1.999h.089c.822.003 4.987.033 6.11.335a2.01 2.01 0 0 1 1.415 1.42c.101.38.172.883.22 1.402l.01.104.022.26.008.104c.065.914.073 1.77.074 1.957v.075c-.001.194-.01 1.108-.082 2.06l-.008.105-.009.104c-.05.572-.124 1.14-.235 1.558a2.01 2.01 0 0 1-1.415 1.42c-1.16.312-5.569.334-6.18.335h-.142c-.309 0-1.587-.006-2.927-.052l-.17-.006-.087-.004-.171-.007-.171-.007c-1.11-.049-2.167-.128-2.654-.26a2.01 2.01 0 0 1-1.415-1.419c-.111-.417-.185-.986-.235-1.558L.09 9.82l-.008-.104A31 31 0 0 1 0 7.68v-.123c.002-.215.01-.958.064-1.778l.007-.103.003-.052.008-.104.022-.26.01-.104c.048-.519.119-1.023.22-1.402a2.01 2.01 0 0 1 1.415-1.42c.487-.13 1.544-.21 2.654-.26l.17-.007.172-.006.086-.003.171-.007A100 100 0 0 1 7.858 2zM6.4 5.209v4.818l4.157-2.408z"
     id="path1" />
  <path
     style="fill:#ffffff;stroke:#ffffff;stroke-width:0.0218878"
     d="M 6.6648427,13.21619 C 4.022437,13.17337 2.1854941,13.042708 1.6544263,12.859797 1.1313517,12.67964 0.71890414,12.314425 0.48291408,11.822445 0.32281002,11.488668 0.24169383,11.124506 0.15454753,10.348278 -0.06929199,8.3544981 -0.00900536,5.4509721 0.28601753,4.0164159 0.38101695,3.5544789 0.51533076,3.2666425 0.78426585,2.9486628 0.97775932,2.7198827 1.33968,2.4824191 1.6553637,2.3771175 2.3321199,2.1513741 4.6809199,2.0190852 8.0218878,2.0185426 10.685784,2.01811 12.822601,2.1092297 13.854993,2.2672821 c 0.694891,0.1063831 1.184122,0.3946776 1.529168,0.9011089 0.29529,0.4334033 0.447263,1.199908 0.554367,2.7960413 0.03798,0.5659743 0.03811,2.7528549 2.01e-4,3.3050615 -0.07537,1.0978632 -0.185064,1.8993572 -0.314539,2.2982212 -0.203882,0.628087 -0.697593,1.113213 -1.331641,1.308487 -0.18373,0.05659 -0.61857,0.125203 -1.061359,0.167484 -1.426531,0.136216 -4.2417402,0.210174 -6.5663473,0.172504 z M 8.4759899,8.8407838 C 9.6106388,8.1836526 10.546871,7.6384784 10.556506,7.629285 10.569593,7.6167972 6.5113296,5.2410977 6.4101323,5.2020065 c -0.010522,-0.00406 -0.018887,1.0648083 -0.018887,2.4131327 0,1.3312356 0.00489,2.4204288 0.010874,2.4204288 0.00598,0 0.9392226,-0.537653 2.0738706,-1.1947842 z"
     id="path13" />
  <path
     style="fill:#ffffff;stroke:#ffffff;stroke-width:0.0218878"
     d=""
     id="path14" />
</svg>
